<svg width="30" height="24" viewBox="0 0 30 24" fill="none" xmlns="http://www.w3.org/2000/svg">
<path d="M21.7976 11.29L15.8453 6.29002C15.732 6.19898 15.5985 6.12761 15.4524 6.08002C15.1626 5.98 14.8375 5.98 14.5476 6.08002C14.4015 6.12761 14.268 6.19898 14.1548 6.29002L8.2024 11.29C8.09141 11.3833 8.00336 11.4939 7.94329 11.6158C7.88321 11.7376 7.85229 11.8682 7.85229 12C7.85229 12.2663 7.97823 12.5217 8.2024 12.71C8.42658 12.8983 8.73062 13.0041 9.04764 13.0041C9.36467 13.0041 9.66871 12.8983 9.89288 12.71L13.8095 9.41002V17C13.8095 17.2652 13.935 17.5196 14.1582 17.7071C14.3815 17.8947 14.6843 18 15 18C15.3158 18 15.6186 17.8947 15.8418 17.7071C16.0651 17.5196 16.1905 17.2652 16.1905 17V9.41002L20.1072 12.71C20.2178 12.8037 20.3495 12.8781 20.4946 12.9289C20.6396 12.9797 20.7952 13.0058 20.9524 13.0058C21.1096 13.0058 21.2652 12.9797 21.4102 12.9289C21.5553 12.8781 21.687 12.8037 21.7976 12.71C21.9092 12.6171 21.9978 12.5065 22.0582 12.3846C22.1187 12.2627 22.1498 12.132 22.1498 12C22.1498 11.868 22.1187 11.7373 22.0582 11.6154C21.9978 11.4936 21.9092 11.383 21.7976 11.29Z" fill="#FBFBFB"/>
</svg>
